<?xml version="1.0" standalone="no"?>
<!DOCTYPE svg PUBLIC "-//W3C//DTD SVG 20010904//EN"
 "http://www.w3.org/TR/2001/REC-SVG-20010904/DTD/svg10.dtd">
<svg version="1.0" xmlns="http://www.w3.org/2000/svg"
 width="512.000000pt" height="512.000000pt" viewBox="0 0 512.000000 512.000000"
 preserveAspectRatio="xMidYMid meet">
<metadata>
Created by potrace 1.11, written by Peter Selinger 2001-2013
</metadata>
<g transform="translate(0.000000,512.000000) scale(0.100000,-0.100000)"
fill="#000000" stroke="none">
<path d="M1517 4894 c-455 -82 -807 -448 -869 -904 l-12 -89 -36 -6 c-60 -11
-178 -63 -250 -110 -141 -91 -255 -238 -313 -403 -27 -76 -31 -103 -35 -223
-4 -114 -1 -149 17 -220 69 -276 281 -493 558 -572 78 -22 82 -22 1078 -25
647 -2 1027 1 1078 7 102 14 216 53 302 103 90 53 220 183 273 273 137 234
145 527 21 765 -101 194 -258 325 -469 390 l-85 27 -8 69 c-41 385 -323 738
-693 870 -175 63 -380 80 -557 48z"/>
<path d="M4184 3180 c-143 -37 -291 -131 -383 -242 -53 -64 -136 -219 -146
-273 l-6 -30 197 -75 c108 -41 200 -76 205 -78 4 -2 10 12 14 30 21 95 93 184
184 227 114 53 248 28 343 -66 63 -62 91 -129 92 -219 1 -62 -3 -79 -34 -140
-25 -49 -49 -79 -85 -106 -96 -73 94 -68 -2357 -68 l-2208 0 0 -220 0 -220
2252 3 c2529 3 2284 -5 2453 77 197 96 340 271 395 485 27 106 27 273 0 379
-66 257 -279 470 -536 536 -103 27 -280 27 -380 0z"/>
<path d="M0 1280 l0 -220 1623 0 c1556 0 1624 -1 1663 -19 80 -36 134 -135
119 -220 -14 -84 -93 -161 -174 -169 -86 -8 -119 4 -177 64 l-53 54 -183 -101
c-100 -55 -184 -102 -186 -104 -3 -2 8 -26 24 -52 67 -116 211 -230 345 -274
63 -21 93 -24 204 -23 108 0 141 4 195 23 191 66 337 209 408 399 33 90 42
275 18 372 -44 177 -175 340 -336 418 -157 76 -46 72 -1865 72 l-1625 0 0
-220z"/>
</g>
</svg>
